<svg width="25" height="24" viewBox="0 0 25 24" fill="none" xmlns="http://www.w3.org/2000/svg">
<g id="ic:department">
<path id="Vector" d="M12.5 3C7.532 3 3.5 7.032 3.5 12C3.5 16.968 7.532 21 12.5 21C17.468 21 21.5 16.968 21.5 12C21.5 7.032 17.468 3 12.5 3ZM8.9 16.95C8.30326 16.95 7.73097 16.7129 7.30901 16.291C6.88705 15.869 6.65 15.2967 6.65 14.7C6.65 14.1033 6.88705 13.531 7.30901 13.109C7.73097 12.6871 8.30326 12.45 8.9 12.45C9.49674 12.45 10.069 12.6871 10.491 13.109C10.9129 13.531 11.15 14.1033 11.15 14.7C11.15 15.2967 10.9129 15.869 10.491 16.291C10.069 16.7129 9.49674 16.95 8.9 16.95ZM10.25 8.4C10.25 7.80326 10.4871 7.23097 10.909 6.80901C11.331 6.38705 11.9033 6.15 12.5 6.15C13.0967 6.15 13.669 6.38705 14.091 6.80901C14.5129 7.23097 14.75 7.80326 14.75 8.4C14.75 8.99674 14.5129 9.56903 14.091 9.99099C13.669 10.4129 13.0967 10.65 12.5 10.65C11.9033 10.65 11.331 10.4129 10.909 9.99099C10.4871 9.56903 10.25 8.99674 10.25 8.4ZM16.1 16.95C15.5033 16.95 14.931 16.7129 14.509 16.291C14.0871 15.869 13.85 15.2967 13.85 14.7C13.85 14.1033 14.0871 13.531 14.509 13.109C14.931 12.6871 15.5033 12.45 16.1 12.45C16.6967 12.45 17.269 12.6871 17.691 13.109C18.1129 13.531 18.35 14.1033 18.35 14.7C18.35 15.2967 18.1129 15.869 17.691 16.291C17.269 16.7129 16.6967 16.95 16.1 16.95Z" fill="#B2B2B2"/>
</g>
</svg>
