<svg width="25" height="24" viewBox="0 0 25 24" fill="none" xmlns="http://www.w3.org/2000/svg">
<g id="ic:recruitment">
<g id="Group 7">
<path id="Vector" d="M5.5 8C5.5 8.79112 5.7346 9.56448 6.17412 10.2223C6.61365 10.8801 7.23836 11.3928 7.96927 11.6955C8.70017 11.9983 9.50444 12.0775 10.2804 11.9231C11.0563 11.7688 11.769 11.3878 12.3284 10.8284C12.8878 10.269 13.2688 9.55628 13.4231 8.78036C13.5775 8.00444 13.4983 7.20017 13.1955 6.46927C12.8928 5.73836 12.3801 5.11365 11.7223 4.67412C11.0645 4.2346 10.2911 4 9.5 4C8.43913 4 7.42172 4.42143 6.67157 5.17157C5.92143 5.92172 5.5 6.93913 5.5 8Z" fill="#B2B2B2"/>
<rect id="Rectangle 34" x="3.5" y="14" width="12" height="6" rx="3" fill="#B2B2B2"/>
<path id="Union" fill-rule="evenodd" clip-rule="evenodd" d="M19.5 8H17.5V10L15.5 10V12H17.5V14H19.5V12H21.5V10L19.5 10V8Z" fill="#B2B2B2"/>
</g>
</g>
</svg>
