<svg width="25" height="24" viewBox="0 0 25 24" fill="none" xmlns="http://www.w3.org/2000/svg">
<g id="ic:settings" clip-path="url(#clip0_1_1179)">
<g id="Group" filter="url(#filter0_d_1_1179)">
<path id="Vector" d="M13.8703 20H10.5943C10.389 20 10.1899 19.9299 10.03 19.8012C9.87004 19.6726 9.75889 19.4931 9.71497 19.2926L9.34867 17.597C8.86002 17.3829 8.39668 17.1151 7.96717 16.7987L6.31387 17.3252C6.11818 17.3876 5.90702 17.3812 5.71548 17.307C5.52393 17.2329 5.36351 17.0954 5.26087 16.9175L3.61927 14.0816C3.5177 13.9035 3.47957 13.6962 3.51113 13.4937C3.54268 13.2911 3.64205 13.1052 3.79297 12.9665L5.07547 11.7965C5.01715 11.2665 5.01715 10.7317 5.07547 10.2017L3.79297 9.0344C3.64183 8.8956 3.54233 8.70957 3.51077 8.5068C3.47921 8.30404 3.51747 8.09657 3.61927 7.9184L5.25727 5.0807C5.35991 4.90278 5.52033 4.76533 5.71188 4.69117C5.90342 4.61701 6.11458 4.61059 6.31027 4.673L7.96357 5.1995C8.18317 5.0375 8.41177 4.8863 8.64757 4.7495C8.87527 4.6217 9.10927 4.5056 9.34867 4.4021L9.71587 2.7083C9.75958 2.50778 9.87052 2.32822 10.0303 2.19939C10.19 2.07057 10.389 2.00022 10.5943 2H13.8703C14.0755 2.00022 14.2745 2.07057 14.4343 2.19939C14.594 2.32822 14.705 2.50778 14.7487 2.7083L15.1195 4.403C15.3715 4.5146 15.6181 4.6397 15.8566 4.7792C16.0789 4.9079 16.294 5.0492 16.501 5.2013L18.1552 4.6748C18.3507 4.61262 18.5617 4.61915 18.753 4.6933C18.9444 4.76746 19.1047 4.90478 19.2073 5.0825L20.8453 7.9202C21.0541 8.2865 20.9821 8.75 20.6716 9.0353L19.3891 10.2053C19.4474 10.7353 19.4474 11.2701 19.3891 11.8001L20.6716 12.9701C20.9821 13.2563 21.0541 13.7189 20.8453 14.0852L19.2073 16.9229C19.1046 17.1008 18.9442 17.2383 18.7527 17.3124C18.5611 17.3866 18.35 17.393 18.1543 17.3306L16.501 16.8041C16.0718 17.1203 15.6087 17.3878 15.1204 17.6015L14.7487 19.2926C14.7048 19.493 14.5938 19.6723 14.434 19.801C14.2743 19.9296 14.0754 19.9998 13.8703 20ZM12.2287 7.4C11.2739 7.4 10.3582 7.77928 9.68308 8.45442C9.00795 9.12955 8.62867 10.0452 8.62867 11C8.62867 11.9548 9.00795 12.8705 9.68308 13.5456C10.3582 14.2207 11.2739 14.6 12.2287 14.6C13.1834 14.6 14.0991 14.2207 14.7743 13.5456C15.4494 12.8705 15.8287 11.9548 15.8287 11C15.8287 10.0452 15.4494 9.12955 14.7743 8.45442C14.0991 7.77928 13.1834 7.4 12.2287 7.4Z" fill="#B2B2B2"/>
</g>
</g>
<defs>
<filter id="filter0_d_1_1179" x="-0.5" y="2" width="25.464" height="26" filterUnits="userSpaceOnUse" color-interpolation-filters="sRGB">
<feFlood flood-opacity="0" result="BackgroundImageFix"/>
<feColorMatrix in="SourceAlpha" type="matrix" values="0 0 0 0 0 0 0 0 0 0 0 0 0 0 0 0 0 0 127 0" result="hardAlpha"/>
<feOffset dy="4"/>
<feGaussianBlur stdDeviation="2"/>
<feComposite in2="hardAlpha" operator="out"/>
<feColorMatrix type="matrix" values="0 0 0 0 0 0 0 0 0 0 0 0 0 0 0 0 0 0 0.25 0"/>
<feBlend mode="normal" in2="BackgroundImageFix" result="effect1_dropShadow_1_1179"/>
<feBlend mode="normal" in="SourceGraphic" in2="effect1_dropShadow_1_1179" result="shape"/>
</filter>
<clipPath id="clip0_1_1179">
<rect width="24" height="24" fill="white" transform="translate(0.5)"/>
</clipPath>
</defs>
</svg>
