<svg width="25" height="24" viewBox="0 0 25 24" fill="none" xmlns="http://www.w3.org/2000/svg">
<g id="ic:support">
<path id="Vector" d="M12.5 3C7.5374 3 3.5 7.0374 3.5 12V15.7287C3.5 16.6503 4.3073 17.4 5.3 17.4H6.2C6.43869 17.4 6.66761 17.3052 6.8364 17.1364C7.00518 16.9676 7.1 16.7387 7.1 16.5V11.8713C7.1 11.6326 7.00518 11.4037 6.8364 11.2349C6.66761 11.0661 6.43869 10.9713 6.2 10.9713H5.3828C5.8832 7.4883 8.8802 4.8 12.5 4.8C16.1198 4.8 19.1168 7.4883 19.6172 10.9713H18.8C18.5613 10.9713 18.3324 11.0661 18.1636 11.2349C17.9948 11.4037 17.9 11.6326 17.9 11.8713V17.4C17.9 18.3927 17.0927 19.2 16.1 19.2H14.3V18.3H10.7V21H16.1C18.0854 21 19.7 19.3854 19.7 17.4C20.6927 17.4 21.5 16.6503 21.5 15.7287V12C21.5 7.0374 17.4626 3 12.5 3Z" fill="#B2B2B2"/>
</g>
</svg>
